{
    "accessors" : [
        {
            "bufferView" : 0,
            "componentType" : 5123,
            "count" : 9288,
            "max" : [
                4443
            ],
            "min" : [
                0
            ],
            "type" : "SCALAR"
        },
        {
            "bufferView" : 1,
            "componentType" : 5126,
            "count" : 4444,
            "max" : [
                1.497257947921753,
                1.5455029010772705,
                0.03159432113170624
            ],
            "min" : [
                -2.071648359298706,
                -1.3912122249603271,
                0.005834822542965412
            ],
            "type" : "VEC3"
        },
        {
            "bufferView" : 2,
            "componentType" : 5126,
            "count" : 4444,
            "max" : [
                0.9997954964637756,
                1.0,
                1.0
            ],
            "min" : [
                -0.9999383687973022,
                -0.9999772906303406,
                -1.0
            ],
            "type" : "VEC3"
        }
    ],
    "asset" : {
        "generator" : "Khronos Blender glTF 2.0 exporter",
        "version" : "2.0"
    },
    "bufferViews" : [
        {
            "buffer" : 0,
            "byteLength" : 18576,
            "byteOffset" : 0,
            "target" : 34963
        },
        {
            "buffer" : 0,
            "byteLength" : 53328,
            "byteOffset" : 18576,
            "target" : 34962
        },
        {
            "buffer" : 0,
            "byteLength" : 53328,
            "byteOffset" : 71904,
            "target" : 34962
        }
    ],
    "buffers" : [
        {
            "byteLength" : 125232,
            "uri" : "Window.bin"
        }
    ],
    "materials" : [
        {
            "emissiveFactor" : [
                1.9299999475479126,
                1.9299999475479126,
                1.9299999475479126
            ],
            "name" : "material",
            "pbrMetallicRoughness" : {
                "metallicFactor" : 0.0
            }
        }
    ],
    "meshes" : [
        {
            "name" : "\u5e73\u9762",
            "primitives" : [
                {
                    "attributes" : {
                        "NORMAL" : 2,
                        "POSITION" : 1
                    },
                    "indices" : 0,
                    "material" : 0
                }
            ]
        }
    ],
    "nodes" : [
        {
            "mesh" : 0,
            "name" : "plane"
        }
    ],
    "scene" : 0,
    "scenes" : [
        {
            "name" : "Scene",
            "nodes" : [
                0
            ]
        }
    ]
}
